<?xml version="1.0" encoding="UTF-8" standalone="no" ?>
<!DOCTYPE svg PUBLIC "-//W3C//DTD SVG 1.1//EN" "http://www.w3.org/Graphics/SVG/1.1/DTD/svg11.dtd">
<svg xmlns="http://www.w3.org/2000/svg" xmlns:xlink="http://www.w3.org/1999/xlink" version="1.1" width="1080" height="1080" viewBox="0 0 1080 1080" xml:space="preserve">
<desc>Created with Fabric.js 5.2.4</desc>
<defs>
</defs>
<g transform="matrix(1 0 0 1 540 540)" id="33f47d33-47c1-427c-a92e-cf5952eb0886"  >
<rect style="stroke: none; stroke-width: 1; stroke-dasharray: none; stroke-linecap: butt; stroke-dashoffset: 0; stroke-linejoin: miter; stroke-miterlimit: 4; fill: rgb(255,255,255); fill-rule: nonzero; opacity: 1; visibility: hidden;" vector-effect="non-scaling-stroke"  x="-540" y="-540" rx="0" ry="0" width="1080" height="1080" />
</g>
<g transform="matrix(1 0 0 1 540 540)" id="4ca9ddb0-c005-4d06-bd4a-f963901d656c"  >
</g>
<g transform="matrix(1 0 0 1 540 540)"  >
<g style="" vector-effect="non-scaling-stroke"   >
		<g transform="matrix(1 0 0 1 11.1 207.45)" id="XMLID_7309_"  >
<path style="stroke: rgb(93,92,116); stroke-width: 4; stroke-dasharray: none; stroke-linecap: butt; stroke-dashoffset: 0; stroke-linejoin: miter; stroke-miterlimit: 10; fill: none; fill-rule: nonzero; opacity: 1;" vector-effect="non-scaling-stroke"  transform=" translate(-404.9, -513.7)" d="M 50.3 513.7 L 759.5 513.7" stroke-linecap="round" />
</g>
		<g transform="matrix(1 0 0 1 129.77 -92.35)" id="XMLID_7308_"  >
<path style="stroke: rgb(93,92,116); stroke-width: 3; stroke-dasharray: none; stroke-linecap: butt; stroke-dashoffset: 0; stroke-linejoin: miter; stroke-miterlimit: 10; fill: rgb(79,193,234); fill-rule: nonzero; opacity: 1;" vector-effect="non-scaling-stroke"  transform=" translate(-523.57, -213.9)" d="M 626.4 232.3 C 650.3 306.9 615 363.5 523.1999999999999 363.5 C 426.19999999999993 363.5 398.0999999999999 307.1 420.99999999999994 232.3 C 435.49999999999994 185.10000000000002 429.99999999999994 133.8 444.69999999999993 110.30000000000001 C 465.49999999999994 77.20000000000002 484.79999999999995 64.30000000000001 523.0999999999999 64.30000000000001 C 559.1999999999999 64.30000000000001 582.5999999999999 75.80000000000001 597.3999999999999 108.00000000000001 C 609.6 134.2 610.9 183.9 626.4 232.3 z" stroke-linecap="round" />
</g>
		<g transform="matrix(1 0 0 1 129.11 -93.75)" id="XMLID_7305_"  >
<path style="stroke: none; stroke-width: 1; stroke-dasharray: none; stroke-linecap: butt; stroke-dashoffset: 0; stroke-linejoin: miter; stroke-miterlimit: 4; fill: rgb(92,92,116); fill-rule: nonzero; opacity: 1;" vector-effect="non-scaling-stroke"  transform=" translate(-522.91, -212.5)" d="M 522.5 363.4 C 476.7 363.4 444.5 351.2 426.6 327 C 409.5 303.8 406.90000000000003 270.5 419.1 230.5 C 425.8 208.5 428.20000000000005 185.5 430.40000000000003 165.1 C 432.90000000000003 141.4 435.00000000000006 121 443.00000000000006 108.19999999999999 C 464.90000000000003 73.29999999999998 485.00000000000006 61.59999999999999 522.5 61.59999999999999 C 561.1 61.59999999999999 583.6 74.89999999999999 598 106.1 C 604.2 119.6 607.6 138.89999999999998 611.4 161.3 C 615.1 182.70000000000002 619.3 206.9 626.9 230.60000000000002 C 639 268.40000000000003 636.1999999999999 301.1 618.6999999999999 325 C 600.4 350.1 567.1 363.4 522.5 363.4 z M 522.5 64.1 C 486 64.1 466.5 75.6 445.1 109.5 C 437.40000000000003 121.8 435.3 141.9 432.90000000000003 165.3 C 430.8 185.8 428.3 209 421.50000000000006 231.20000000000002 C 409.50000000000006 270.3 412.00000000000006 302.90000000000003 428.6000000000001 325.40000000000003 C 445.9000000000001 348.90000000000003 477.50000000000006 360.70000000000005 522.4000000000001 360.70000000000005 C 566.2 360.70000000000005 598.7 347.80000000000007 616.6000000000001 323.30000000000007 C 633.6000000000001 300.1000000000001 636.3000000000002 268.20000000000005 624.4000000000001 231.20000000000007 C 616.7 207.30000000000007 612.5000000000001 183.00000000000006 608.8000000000001 161.60000000000008 C 604.9000000000001 139.4000000000001 601.6 120.30000000000008 595.6 107.10000000000008 C 581.8 77 559.9 64.1 522.5 64.1 L 522.5 64.1 z" stroke-linecap="round" />
</g>
		<g transform="matrix(1 0 0 1 130.4 50.9)" id="XMLID_7304_"  >
<path style="stroke: rgb(93,92,116); stroke-width: 4; stroke-dasharray: none; stroke-linecap: butt; stroke-dashoffset: 0; stroke-linejoin: miter; stroke-miterlimit: 10; fill: rgb(52,66,88); fill-rule: nonzero; opacity: 1;" vector-effect="non-scaling-stroke"  transform=" translate(-524.2, -357.15)" d="M 392 406.9 C 392 352 451.2 307.4 524.2 307.4 C 597.2 307.4 656.4000000000001 351.9 656.4000000000001 406.9" stroke-linecap="round" />
</g>
		<g transform="matrix(1 0 0 1 129.75 -69)" id="XMLID_7303_"  >
<path style="stroke: none; stroke-width: 1; stroke-dasharray: none; stroke-linecap: butt; stroke-dashoffset: 0; stroke-linejoin: miter; stroke-miterlimit: 4; fill: rgb(251,215,206); fill-rule: nonzero; opacity: 1;" vector-effect="non-scaling-stroke"  transform=" translate(-523.55, -237.25)" d="M 553.8 156 C 525.4 156 500.9 144.4 489.19999999999993 127.6 C 484.49999999999994 146.5 471.19999999999993 160.6 455.19999999999993 162.6 L 455.19999999999993 223.8 C 455.19999999999993 247.4 469.99999999999994 276.8 493.0999999999999 291.6 L 493.0999999999999 315.20000000000005 C 493.0999999999999 328.40000000000003 501.3999999999999 346.90000000000003 523.3 346.90000000000003 C 544.5999999999999 346.90000000000003 553.9 328.40000000000003 553.9 315.20000000000005 L 553.9 293.20000000000005 C 578.6 279.00000000000006 591.9 248.20000000000005 591.9 223.70000000000005 L 591.9 146 C 587.8 154 577.9 156 553.8 156 z" stroke-linecap="round" />
</g>
		<g transform="matrix(1 0 0 1 129.55 -69.76)" id="XMLID_7300_"  >
<path style="stroke: none; stroke-width: 1; stroke-dasharray: none; stroke-linecap: butt; stroke-dashoffset: 0; stroke-linejoin: miter; stroke-miterlimit: 4; fill: rgb(92,92,116); fill-rule: nonzero; opacity: 1;" vector-effect="non-scaling-stroke"  transform=" translate(-523.35, -236.49)" d="M 523.1 347.5 C 500 347.5 491.70000000000005 327.8 491.70000000000005 314.5 L 491.70000000000005 291.5 C 469.70000000000005 277.1 453.80000000000007 248.4 453.80000000000007 223 L 453.80000000000007 161.8 C 453.80000000000007 161.20000000000002 454.30000000000007 160.60000000000002 454.9000000000001 160.5 C 470.2000000000001 158.6 483.1000000000001 145.3 487.80000000000007 126.5 C 487.9000000000001 126 488.30000000000007 125.6 488.80000000000007 125.5 C 489.30000000000007 125.4 489.80000000000007 125.6 490.1000000000001 126 C 502.1000000000001 143.1 526.4000000000001 153.8 553.6000000000001 153.8 C 578.3000000000002 153.8 586.9000000000001 151.70000000000002 590.5000000000001 144.70000000000002 C 590.8000000000001 144.20000000000002 591.4000000000001 143.9 591.9000000000001 144.00000000000003 C 592.5000000000001 144.10000000000002 592.9000000000001 144.60000000000002 592.9000000000001 145.20000000000002 L 592.9000000000001 222.90000000000003 C 592.9000000000001 246.00000000000003 581.0000000000001 277.70000000000005 554.9000000000001 293.1 L 554.9000000000001 314.3 C 555 328.2 545.1 347.5 523.1 347.5 L 523.1 347.5 z M 456.3 162.9 L 456.3 223 C 456.3 247.8 472 275.9 493.6 289.7 C 494 289.9 494.20000000000005 290.3 494.20000000000005 290.8 L 494.20000000000005 314.40000000000003 C 494.20000000000005 326.6 501.90000000000003 344.8 523.1 344.8 C 543.3000000000001 344.8 552.4 327 552.4 314.40000000000003 L 552.4 292.40000000000003 C 552.4 291.90000000000003 552.6 291.50000000000006 553 291.3 C 577.5 277.2 590.3 246.20000000000002 590.3 222.9 L 590.3 149.2 C 584.5 155.2 573.0999999999999 156.29999999999998 553.5 156.29999999999998 C 526.6 156.29999999999998 502.4 146.1 489.4 129.6 C 484.2 147.7 471.5 160.5 456.3 162.9 L 456.3 162.9 z" stroke-linecap="round" />
</g>
		<g transform="matrix(1 0 0 1 130.5 -54.65)" id="XMLID_7299_"  >
<path style="stroke: none; stroke-width: 1; stroke-dasharray: none; stroke-linecap: butt; stroke-dashoffset: 0; stroke-linejoin: miter; stroke-miterlimit: 4; fill: rgb(92,92,116); fill-rule: nonzero; opacity: 1;" vector-effect="non-scaling-stroke"  transform=" translate(-524.3, -251.6)" d="M 537.5 248.2 C 537.5 248.2 531.6 255 524.3 255 C 516.9999999999999 255 511.09999999999997 248.2 511.09999999999997 248.2 C 511.09999999999997 248.2 517 249 524.3 249 C 531.5999999999999 249 537.5 248.2 537.5 248.2 z" stroke-linecap="round" />
</g>
		<g transform="matrix(1 0 0 1 131.31 -79.75)" id="XMLID_7297_"  >
<path style="stroke: none; stroke-width: 1; stroke-dasharray: none; stroke-linecap: butt; stroke-dashoffset: 0; stroke-linejoin: miter; stroke-miterlimit: 4; fill: rgb(92,92,116); fill-rule: nonzero; opacity: 1;" vector-effect="non-scaling-stroke"  transform=" translate(-525.11, -226.5)" d="M 525 229.8 L 524.7 229.8 C 522.6 229.70000000000002 520.8000000000001 228.9 519.8000000000001 227.5 C 519.0000000000001 226.4 518.8000000000001 225 519.2 223.6 L 520.4000000000001 224 C 520.1000000000001 225 520.2 225.9 520.8000000000001 226.7 C 521.6 227.79999999999998 523.0000000000001 228.5 524.7 228.5 C 526.7 228.5 528.5 227.8 529.4000000000001 226.6 C 530.0000000000001 225.79999999999998 530.0000000000001 224.79999999999998 529.6000000000001 223.7 L 530.8000000000002 223.2 C 531.6000000000001 225.1 531.1000000000001 226.5 530.5000000000002 227.29999999999998 C 529.5 228.8 527.3 229.8 525 229.8 L 525 229.8 z" stroke-linecap="round" />
</g>
		<g transform="matrix(1 0 0 1 129.1 150.55)" id="XMLID_7295_"  >
<path style="stroke: none; stroke-width: 1; stroke-dasharray: none; stroke-linecap: butt; stroke-dashoffset: 0; stroke-linejoin: miter; stroke-miterlimit: 4; fill: rgb(228,230,233); fill-rule: nonzero; opacity: 1;" vector-effect="non-scaling-stroke"  transform=" translate(-522.9, -456.8)" d="M 670.3 378.6 L 670.3 535.2 C 670.3 543.3000000000001 663.6999999999999 549.9000000000001 655.5999999999999 549.9000000000001 L 390.2 549.9000000000001 C 382.09999999999997 549.9000000000001 375.5 543.3000000000001 375.5 535.2 L 375.5 378.4 C 375.5 370.29999999999995 382.1 363.7 390.2 363.7 L 655.5999999999999 363.7 C 663.7 363.9 670.3 370.5 670.3 378.6" stroke-linecap="round" />
</g>
		<g transform="matrix(1 0 0 1 129.1 227.75)" id="XMLID_7294_"  >
<path style="stroke: none; stroke-width: 1; stroke-dasharray: none; stroke-linecap: butt; stroke-dashoffset: 0; stroke-linejoin: miter; stroke-miterlimit: 4; fill: rgb(205,207,210); fill-rule: nonzero; opacity: 1;" vector-effect="non-scaling-stroke"  transform=" translate(-522.9, -534)" d="M 670.3 518.1 L 670.3 535.3000000000001 C 670.3 543.4000000000001 663.6999999999999 550.0000000000001 655.5999999999999 550.0000000000001 L 390.2 550.0000000000001 C 382.09999999999997 550.0000000000001 375.5 543.4000000000001 375.5 535.3000000000001 L 375.5 518 L 670.3 518.1 z" stroke-linecap="round" />
</g>
		<g transform="matrix(1 0 0 1 184.05 128.85)" id="XMLID_7288_"  >
<path style="stroke: none; stroke-width: 1; stroke-dasharray: none; stroke-linecap: butt; stroke-dashoffset: 0; stroke-linejoin: miter; stroke-miterlimit: 4; fill: rgb(255,255,255); fill-rule: nonzero; opacity: 1;" vector-effect="non-scaling-stroke"  transform=" translate(-577.85, -435.1)" d="M 650.2 428.5 C 648.8000000000001 428.5 647.8000000000001 427.5 647.8000000000001 426.1 L 647.8000000000001 397.90000000000003 C 647.8000000000001 391.1 642.3000000000001 385.6 635.5000000000001 385.6 L 603.8000000000001 385.6 C 602.4000000000001 385.6 601.4000000000001 384.6 601.4000000000001 383.20000000000005 C 601.4000000000001 381.80000000000007 602.4000000000001 380.80000000000007 603.8000000000001 380.80000000000007 L 635.5000000000001 380.80000000000007 C 645.0000000000001 380.80000000000007 652.7000000000002 388.6000000000001 652.7000000000002 398.00000000000006 L 652.7000000000002 426.20000000000005 C 652.8 427.3 651.6 428.5 650.2 428.5 M 586.3 385.5 L 564.0999999999999 385.5 C 562.6999999999999 385.5 561.6999999999999 384.5 561.6999999999999 383.1 C 561.6999999999999 381.70000000000005 562.6999999999999 380.70000000000005 564.0999999999999 380.70000000000005 L 586.3 380.70000000000005 C 587.6999999999999 380.70000000000005 588.6999999999999 381.70000000000005 588.6999999999999 383.1 C 588.7 384.3 587.7 385.5 586.3 385.5 M 531.4 469.4 C 543 483.29999999999995 534.1999999999999 489.5 523.1 489.5 C 512.0000000000001 489.5 503 480.5 503 469.4 C 503 458.29999999999995 512 449.29999999999995 523.1 449.29999999999995 C 534.2 449.3 539.4 459.3 531.4 469.4" stroke-linecap="round" />
</g>
		<g transform="matrix(1 0 0 1 126.06 163.15)" id="XMLID_7285_"  >
<path style="stroke: rgb(93,92,116); stroke-width: 2; stroke-dasharray: none; stroke-linecap: butt; stroke-dashoffset: 0; stroke-linejoin: miter; stroke-miterlimit: 10; fill: none; fill-rule: nonzero; opacity: 1;" vector-effect="non-scaling-stroke"  transform=" translate(-519.86, -469.4)" d="M 522.4 489 C 511.59999999999997 489 502.79999999999995 480.2 502.79999999999995 469.4 C 502.79999999999995 458.59999999999997 511.59999999999997 449.79999999999995 522.4 449.79999999999995 C 527.8 449.79999999999995 532.1999999999999 452.29999999999995 534.3 456.4 C 536.1999999999999 460.2 535.6999999999999 464.9 532.9 469.29999999999995 C 536.6999999999999 474.49999999999994 537.9 478.99999999999994 536.1 482.69999999999993 C 534.2 486.7 529 489 522.4 489" stroke-linecap="round" />
</g>
		<g transform="matrix(1 0 0 1 128.07 132.96)" id="XMLID_7284_"  >
<path style="stroke: none; stroke-width: 1; stroke-dasharray: none; stroke-linecap: butt; stroke-dashoffset: 0; stroke-linejoin: miter; stroke-miterlimit: 4; fill: rgb(93,92,116); fill-rule: nonzero; opacity: 1;" vector-effect="non-scaling-stroke"  transform=" translate(-521.87, -439.21)" d="M 519.3 444.2 C 518.3 444.2 517.4 443.3 517.4 442.3 C 517.4 442.1 517.4 442 517.5 441.7 C 517.6 441.5 519.2 435.7 524 434.3 C 525 434 526 434.6 526.3 435.7 C 526.5 436.7 526 437.7 525 437.9 C 522.4 438.79999999999995 521.1 442.59999999999997 521.1 442.7 C 520.9 443.6 520.1 444.2 519.3 444.2" stroke-linecap="round" />
</g>
		<g transform="matrix(1 0 0 1 -147.3 192.3)" id="XMLID_7283_"  >
<path style="stroke: none; stroke-width: 1; stroke-dasharray: none; stroke-linecap: butt; stroke-dashoffset: 0; stroke-linejoin: miter; stroke-miterlimit: 4; fill: rgb(223,225,226); fill-rule: nonzero; opacity: 1;" vector-effect="non-scaling-stroke"  transform=" translate(-246.5, -498.55)" d="M 225 530.6 L 268 530.6 L 268 466.5 L 225 466.5 L 225 530.6 z" stroke-linecap="round" />
</g>
		<g transform="matrix(1 0 0 1 -146.85 144.72)" id="XMLID_7275_"  >
<path style="stroke: none; stroke-width: 1; stroke-dasharray: none; stroke-linecap: butt; stroke-dashoffset: 0; stroke-linejoin: miter; stroke-miterlimit: 4; fill: rgb(93,92,116); fill-rule: nonzero; opacity: 1;" vector-effect="non-scaling-stroke"  transform=" translate(-246.95, -450.97)" d="M 236 457.2 C 235.8 457.2 235.7 457.2 235.5 457 C 235.2 456.7 231.7 454.4 231.3 452 C 231.10000000000002 451 231.5 449.9 232 449.1 C 232.5 447.90000000000003 232.9 446.8 232.5 445.5 C 232.3 445 232.7 444.5 233.2 444.5 C 233.7 444.3 234.2 444.7 234.2 445.2 C 234.7 447.3 234 448.7 233.7 449.9 C 233.39999999999998 450.59999999999997 233.2 451.29999999999995 233.2 452 C 233.39999999999998 453 235.29999999999998 454.8 236.5 455.8 C 236.8 456.1 237 456.7 236.7 457 C 236.6 457 236.4 457.2 236 457.2 M 257.2 457.5 C 256.9 457.5 256.5 457.3 256.3 456.8 C 256.1 456.3 254.70000000000002 452.3 256 450.2 C 256.5 449.3 257.4 448.59999999999997 258.3 448.09999999999997 C 259.3 447.4 260.2 446.9 260.90000000000003 445.49999999999994 C 261.1 444.99999999999994 261.6 444.79999999999995 262.1 445.19999999999993 C 262.40000000000003 445.3999999999999 262.8 445.8999999999999 262.6 446.3999999999999 C 261.70000000000005 448.2999999999999 260.3 449.19999999999993 259.3 449.8999999999999 C 258.6 450.3999999999999 257.90000000000003 450.7999999999999 257.7 451.2999999999999 C 257.2 452.2999999999999 257.7 454.7999999999999 258.2 456.2999999999999 C 258.4 456.7999999999999 258.2 457.2999999999999 257.7 457.4999999999999 L 257.2 457.4999999999999" stroke-linecap="round" />
</g>
		<g transform="matrix(1 0 0 1 -146.25 143.57)" id="XMLID_1_"  >
<path style="stroke: none; stroke-width: 1; stroke-dasharray: none; stroke-linecap: butt; stroke-dashoffset: 0; stroke-linejoin: miter; stroke-miterlimit: 4; fill: rgb(93,92,116); fill-rule: nonzero; opacity: 1;" vector-effect="non-scaling-stroke"  transform=" translate(-247.55, -449.82)" d="M 245.7 457.5 C 245.39999999999998 457.5 245 457.3 244.79999999999998 456.6 C 244.6 456 243.2 451.1 244.49999999999997 448.6 C 244.99999999999997 447.5 245.89999999999998 446.70000000000005 246.79999999999998 446 C 247.79999999999998 445.1 248.7 444.5 249.39999999999998 442.8 C 249.59999999999997 442.2 250.09999999999997 441.90000000000003 250.59999999999997 442.40000000000003 C 250.89999999999998 442.6 251.29999999999995 443.3 251.09999999999997 443.90000000000003 C 250.19999999999996 446.20000000000005 248.79999999999995 447.3 247.79999999999995 448.20000000000005 C 247.09999999999997 448.80000000000007 246.39999999999995 449.30000000000007 246.19999999999996 449.90000000000003 C 245.69999999999996 451.1 246.19999999999996 454.20000000000005 246.69999999999996 456.00000000000006 C 246.89999999999995 456.6000000000001 246.69999999999996 457.20000000000005 246.19999999999996 457.50000000000006 L 245.7 457.50000000000006" stroke-linecap="round" />
</g>
		<g transform="matrix(1 0 0 1 -154.4 209.75)" id="XMLID_7271_"  >
<path style="stroke: none; stroke-width: 1; stroke-dasharray: none; stroke-linecap: butt; stroke-dashoffset: 0; stroke-linejoin: miter; stroke-miterlimit: 4; fill: rgb(255,255,255); fill-rule: nonzero; opacity: 1;" vector-effect="non-scaling-stroke"  transform=" translate(-239.4, -516)" d="M 239.4 517.3 C 237.9 517.3 236.70000000000002 516.1999999999999 236.70000000000002 514.5999999999999 L 236.70000000000002 494.5999999999999 C 236.70000000000002 493.0999999999999 237.8 491.8999999999999 239.4 491.8999999999999 C 240.9 491.8999999999999 242.1 492.99999999999994 242.1 494.5999999999999 L 242.1 514.5999999999999 C 242.1 516.2 240.9 517.3 239.4 517.3 C 239.4 517.5 239.4 517.5 239.4 517.3 M 239.4 540.1 C 237.9 540.1 236.70000000000002 539 236.70000000000002 537.4 L 236.70000000000002 527.3 C 236.70000000000002 525.8 237.8 524.5999999999999 239.4 524.5999999999999 C 240.9 524.5999999999999 242.1 525.6999999999999 242.1 527.3 L 242.1 537.4 C 242.1 538.8 240.9 540.1 239.4 540.1" stroke-linecap="round" />
</g>
		<g transform="matrix(1 0 0 1 -197.31 -20.75)" id="XMLID_7270_"  >
<path style="stroke: none; stroke-width: 1; stroke-dasharray: none; stroke-linecap: butt; stroke-dashoffset: 0; stroke-linejoin: miter; stroke-miterlimit: 4; fill: rgb(205,207,210); fill-rule: nonzero; opacity: 1;" vector-effect="non-scaling-stroke"  transform=" translate(-196.49, -285.5)" d="M 229.1 268.6 L 179 318.8 C 179 318.8 167.4 308.1 165.7 298.90000000000003 C 165.7 298.90000000000003 157.39999999999998 277.70000000000005 176.29999999999998 261.00000000000006 C 176.29999999999998 261.00000000000006 187.29999999999998 248.00000000000006 210.39999999999998 253.60000000000005 C 210.4 253.6 223 257.8 229.1 268.6 L 229.1 268.6 z" stroke-linecap="round" />
</g>
		<g transform="matrix(1 0 0 1 -234.14 -35.08)" id="XMLID_7269_"  >
<path style="stroke: none; stroke-width: 1; stroke-dasharray: none; stroke-linecap: butt; stroke-dashoffset: 0; stroke-linejoin: miter; stroke-miterlimit: 4; fill: rgb(93,92,116); fill-rule: nonzero; opacity: 1;" vector-effect="non-scaling-stroke"  transform=" translate(-159.66, -271.17)" d="M 109.9 233.2 C 110 232.7 110.4 232.39999999999998 110.80000000000001 232.2 C 111.20000000000002 232 111.70000000000002 232 112.20000000000002 232.2 L 172.10000000000002 258.5 C 172.3 258.6 172.50000000000003 258.7 172.70000000000002 258.9 C 188.20000000000002 244.7 212.3 244.99999999999997 227.3 260 C 229.60000000000002 262.3 231.60000000000002 264.9 233.20000000000002 267.6 C 233.9 268.40000000000003 233.9 269.6 233.10000000000002 270.3 L 228.90000000000003 274.5 L 223.20000000000005 274.5 L 229.00000000000006 268.7 C 227.70000000000005 266.7 226.10000000000005 264.7 224.40000000000006 262.9 C 210.60000000000005 249.09999999999997 188.10000000000008 249.09999999999997 174.20000000000005 262.9 C 164.50000000000006 272.59999999999997 161.60000000000005 286.7 165.60000000000005 299 C 165.80000000000004 299.7 165.70000000000005 300.4 165.10000000000005 300.9 C 164.30000000000004 301.7 163.10000000000005 301.7 162.30000000000004 300.9 C 162.20000000000005 300.79999999999995 162.10000000000005 300.59999999999997 162.00000000000003 300.5 C 162.00000000000003 300.5 161.90000000000003 300.5 161.90000000000003 300.4 L 161.90000000000003 300.29999999999995 C 161.90000000000003 300.19999999999993 161.80000000000004 300.09999999999997 161.80000000000004 299.99999999999994 C 157.60000000000005 286.8999999999999 160.40000000000003 272.09999999999997 170.10000000000005 261.3999999999999 L 112.50000000000006 236.0999999999999 L 89.20000000000006 310.2999999999999 L 85.60000000000007 310.2999999999999 L 109.9 233.2 L 109.9 233.2 z" stroke-linecap="round" />
</g>
		<g transform="matrix(1 0 0 1 -284.75 206.75)" id="XMLID_7265_"  >
<path style="stroke: none; stroke-width: 1; stroke-dasharray: none; stroke-linecap: butt; stroke-dashoffset: 0; stroke-linejoin: miter; stroke-miterlimit: 4; fill: rgb(93,92,116); fill-rule: nonzero; opacity: 1;" vector-effect="non-scaling-stroke"  transform=" translate(-109.05, -513)" d="M 112.8 532.3 C 112.3 532.3 111.8 532.0999999999999 111.5 531.6999999999999 L 72.1 483.29999999999995 L 76.5 483.29999999999995 L 113.6 528.9 L 177.8 528.9 C 178.70000000000002 528.9 179.5 529.6999999999999 179.5 530.6 L 179.5 539.6 C 179.5 540.5 178.7 541.3000000000001 177.8 541.3000000000001 L 40.30000000000001 542.7 C 39.40000000000001 542.7 38.60000000000001 541.9000000000001 38.60000000000001 541 C 38.60000000000001 540.0999999999999 39.30000000000001 539.3 40.30000000000001 539.3 L 176.10000000000002 537.9 L 176.10000000000002 532.3 L 112.8 532.3 L 112.8 532.3 z" stroke-linecap="round" />
</g>
		<g transform="matrix(1 0 0 1 -209.95 9.1)" id="XMLID_7263_"  >
<path style="stroke: none; stroke-width: 1; stroke-dasharray: none; stroke-linecap: butt; stroke-dashoffset: 0; stroke-linejoin: miter; stroke-miterlimit: 4; fill: rgb(93,92,116); fill-rule: nonzero; opacity: 1;" vector-effect="non-scaling-stroke"  transform=" translate(-183.85, -315.35)" d="M 181.8 321.6 C 181 322.40000000000003 179.70000000000002 322.40000000000003 179 321.6 C 178.2 320.8 178.2 319.5 179 318.8 L 189.3 308.5 L 189.3 314.2 L 181.8 321.6 L 181.8 321.6 z" stroke-linecap="round" />
</g>
		<g transform="matrix(1 0 0 1 -184 -7.89)" id="XMLID_7262_"  >
<path style="stroke: none; stroke-width: 1; stroke-dasharray: none; stroke-linecap: butt; stroke-dashoffset: 0; stroke-linejoin: miter; stroke-miterlimit: 4; fill: rgb(237,238,239); fill-rule: nonzero; opacity: 1;" vector-effect="non-scaling-stroke"  transform=" translate(-209.8, -298.36)" d="M 220.4 308.9 C 213 316.29999999999995 201.3 316.59999999999997 193.4 310 L 221.4 282 C 228.1 289.8 227.8 301.5 220.4 308.9 z" stroke-linecap="round" />
</g>
		<g transform="matrix(1 0 0 1 -184.16 -9.59)" id="XMLID_7256_"  >
<path style="stroke: none; stroke-width: 1; stroke-dasharray: none; stroke-linecap: butt; stroke-dashoffset: 0; stroke-linejoin: miter; stroke-miterlimit: 4; fill: rgb(93,92,116); fill-rule: nonzero; opacity: 1;" vector-effect="non-scaling-stroke"  transform=" translate(-209.64, -296.66)" d="M 228.9 274.5 L 223.20000000000002 274.5 L 189.20000000000002 308.5 L 189.20000000000002 314.2 L 190.50000000000003 312.9 C 199.90000000000003 321.09999999999997 214.20000000000002 320.79999999999995 223.10000000000002 311.79999999999995 C 232.00000000000003 302.9 232.40000000000003 288.59999999999997 224.20000000000002 279.19999999999993 L 228.9 274.5 L 228.9 274.5 z M 221.5 282 C 228.1 289.8 227.8 301.6 220.4 309 C 213 316.4 201.3 316.7 193.4 310.1 L 221.5 282 z" stroke-linecap="round" />
</g>
		<g transform="matrix(1 0 0 1 -343.6 147.25)" id="XMLID_7255_"  >
<path style="stroke: none; stroke-width: 1; stroke-dasharray: none; stroke-linecap: butt; stroke-dashoffset: 0; stroke-linejoin: miter; stroke-miterlimit: 4; fill: rgb(228,230,233); fill-rule: nonzero; opacity: 1;" vector-effect="non-scaling-stroke"  transform=" translate(-50.2, -453.5)" d="M 50.2 473.7 C 39 473.7 30.000000000000004 464.59999999999997 30.000000000000004 453.5 C 30.000000000000004 442.3 39.1 433.3 50.2 433.3 C 61.400000000000006 433.3 70.4 442.40000000000003 70.4 453.5 C 70.4 464.7 61.3 473.7 50.2 473.7 z" stroke-linecap="round" />
</g>
		<g transform="matrix(1 0 0 1 -342.2 146.65)" id="XMLID_7251_"  >
<path style="stroke: none; stroke-width: 1; stroke-dasharray: none; stroke-linecap: butt; stroke-dashoffset: 0; stroke-linejoin: miter; stroke-miterlimit: 4; fill: rgb(93,92,116); fill-rule: nonzero; opacity: 1;" vector-effect="non-scaling-stroke"  transform=" translate(-51.6, -452.9)" d="M 72.2 483.3 L 76.60000000000001 483.3 L 66.4 470.7 C 71 466.4 73.9 460.3 73.9 453.5 C 73.9 443.4 67.5 434.8 58.60000000000001 431.4 L 61.400000000000006 422.5 L 57.800000000000004 422.5 L 55.300000000000004 430.4 C 53.7 430 51.900000000000006 429.79999999999995 50.2 429.79999999999995 C 37.2 429.79999999999995 26.6 440.4 26.6 453.4 C 26.6 466.4 37.2 477 50.2 477 C 55.2 477 59.900000000000006 475.4 63.7 472.7 L 72.2 483.3 L 72.2 483.3 z M 50.2 473.7 C 39 473.7 30.000000000000004 464.59999999999997 30.000000000000004 453.5 C 30.000000000000004 442.3 39.1 433.3 50.2 433.3 C 61.400000000000006 433.3 70.4 442.40000000000003 70.4 453.5 C 70.4 464.7 61.3 473.7 50.2 473.7 z" stroke-linecap="round" />
</g>
		<g transform="matrix(1 0 0 1 -285.6 229.55)" id="XMLID_7247_"  >
<path style="stroke: none; stroke-width: 1; stroke-dasharray: none; stroke-linecap: butt; stroke-dashoffset: 0; stroke-linejoin: miter; stroke-miterlimit: 4; fill: rgb(205,207,210); fill-rule: nonzero; opacity: 1;" vector-effect="non-scaling-stroke"  transform=" translate(-108.2, -535.8)" d="M 40.3 532.3 L 176.10000000000002 532.3 L 176.10000000000002 539.3 L 40.3 539.3 L 40.3 532.3 z" stroke-linecap="round" />
</g>
		<g transform="matrix(1 0 0 1 -321.5 63.8)" id="XMLID_7245_"  >
<path style="stroke: rgb(93,92,116); stroke-width: 3; stroke-dasharray: none; stroke-linecap: butt; stroke-dashoffset: 0; stroke-linejoin: miter; stroke-miterlimit: 10; fill: none; fill-rule: nonzero; opacity: 1;" vector-effect="non-scaling-stroke"  transform=" translate(-72.3, -370.05)" d="M 56.4 432.3 L 88.2 307.8" stroke-linecap="round" />
</g>
		<g transform="matrix(1 0 0 1 90.44 -121.23)" id="XMLID_7243_"  >
<path style="stroke: none; stroke-width: 1; stroke-dasharray: none; stroke-linecap: butt; stroke-dashoffset: 0; stroke-linejoin: miter; stroke-miterlimit: 4; fill: rgb(92,92,116); fill-rule: nonzero; opacity: 1;" vector-effect="non-scaling-stroke"  transform=" translate(-484.24, -185.02)" d="M 475.8 189.7 C 475.2 189.7 474.5 189.5 474 189 C 472.9 188 472.9 186.4 473.9 185.3 C 477.2 181.8 481.79999999999995 180 486.2 180.4 C 489.9 180.70000000000002 493 182.6 494.9 185.5 C 495.7 186.7 495.29999999999995 188.3 494.09999999999997 189.1 C 492.9 189.9 491.29999999999995 189.5 490.49999999999994 188.29999999999998 C 489.49999999999994 186.7 487.79999999999995 185.79999999999998 485.79999999999995 185.6 C 482.99999999999994 185.29999999999998 479.99999999999994 186.6 477.79999999999995 188.9 C 477.2 189.4 476.5 189.7 475.8 189.7 L 475.8 189.7 z" stroke-linecap="round" />
</g>
		<g transform="matrix(1 0 0 1 171.15 -121.32)" id="XMLID_7235_"  >
<path style="stroke: none; stroke-width: 1; stroke-dasharray: none; stroke-linecap: butt; stroke-dashoffset: 0; stroke-linejoin: miter; stroke-miterlimit: 4; fill: rgb(92,92,116); fill-rule: nonzero; opacity: 1;" vector-effect="non-scaling-stroke"  transform=" translate(-564.95, -184.93)" d="M 574.4 189.7 C 573.6999999999999 189.7 573 189.39999999999998 572.5 188.89999999999998 C 570.3 186.59999999999997 567.1 185.29999999999998 563.9 185.49999999999997 C 561.3 185.59999999999997 559.1 186.69999999999996 557.6999999999999 188.49999999999997 C 556.8 189.69999999999996 555.1999999999999 189.89999999999998 553.9999999999999 188.99999999999997 C 552.8999999999999 188.09999999999997 552.5999999999999 186.49999999999997 553.4999999999999 185.29999999999998 C 555.7999999999998 182.29999999999998 559.3999999999999 180.49999999999997 563.4999999999999 180.2 C 568.2999999999998 179.89999999999998 572.8999999999999 181.79999999999998 576.1999999999999 185.2 C 577.1999999999999 186.2 577.1999999999999 187.89999999999998 576.0999999999999 188.89999999999998 C 575.7 189.4 575.1 189.7 574.4 189.7 z" stroke-linecap="round" />
</g>
		<g transform="matrix(1 0 0 1 129.1 150.55)"  >
<path style="stroke: rgb(92,92,116); stroke-width: 3; stroke-dasharray: none; stroke-linecap: butt; stroke-dashoffset: 0; stroke-linejoin: miter; stroke-miterlimit: 10; fill: none; fill-rule: nonzero; opacity: 1;" vector-effect="non-scaling-stroke"  transform=" translate(-522.9, -456.8)" d="M 375.5 456.8 L 375.5 379.4 C 375.5 370.7 382.5 363.7 391.2 363.7 L 654.5999999999999 363.7 C 663.3 363.7 670.3 370.7 670.3 379.4 L 670.3 534.2 C 670.3 542.9000000000001 663.3 549.9000000000001 654.5999999999999 549.9000000000001 L 391.2 549.9000000000001 C 382.5 549.9000000000001 375.5 542.9000000000001 375.5 534.2 L 375.5 504.70000000000005" stroke-linecap="round" />
</g>
		<g transform="matrix(1 0 0 1 -18.3 173)"  >
<line style="stroke: rgb(92,92,116); stroke-width: 3; stroke-dasharray: none; stroke-linecap: butt; stroke-dashoffset: 0; stroke-linejoin: miter; stroke-miterlimit: 10; fill: none; fill-rule: nonzero; opacity: 1;" vector-effect="non-scaling-stroke"  x1="0" y1="-11.350000000000023" x2="0" y2="11.350000000000023" />
</g>
		<g transform="matrix(1 0 0 1 -147.3 192.35)"  >
<path style="stroke: rgb(93,92,116); stroke-width: 2; stroke-dasharray: none; stroke-linecap: butt; stroke-dashoffset: 0; stroke-linejoin: miter; stroke-miterlimit: 10; fill: none; fill-rule: nonzero; opacity: 1;" vector-effect="non-scaling-stroke"  transform=" translate(-246.5, -498.6)" d="M 225 500 L 225 468.6 C 225 467.5 225.9 466.6 227 466.6 L 266 466.6 C 267.1 466.6 268 467.5 268 468.6 L 268 528.6 C 268 529.7 267.1 530.6 266 530.6 L 227 530.6 C 225.9 530.6 225 529.7 225 528.6 L 225 523.4" stroke-linecap="round" />
</g>
		<g transform="matrix(1 0 0 1 -168.8 205.55)"  >
<line style="stroke: rgb(93,92,116); stroke-width: 2; stroke-dasharray: none; stroke-linecap: butt; stroke-dashoffset: 0; stroke-linejoin: miter; stroke-miterlimit: 10; fill: none; fill-rule: nonzero; opacity: 1;" vector-effect="non-scaling-stroke"  x1="0" y1="7.099999999999994" x2="0" y2="-7.099999999999994" />
</g>
		<g transform="matrix(1 0 0 1 -125.8 177.05)"  >
<path style="stroke: rgb(93,92,116); stroke-width: 2; stroke-dasharray: none; stroke-linecap: butt; stroke-dashoffset: 0; stroke-linejoin: miter; stroke-miterlimit: 10; fill: none; fill-rule: nonzero; opacity: 1;" vector-effect="non-scaling-stroke"  transform=" translate(-268, -483.3)" d="M 268 483.3" stroke-linecap="round" />
</g>
		<g transform="matrix(1 0 0 1 -119.25 188.65)"  >
<path style="stroke: rgb(93,92,116); stroke-width: 3; stroke-dasharray: none; stroke-linecap: butt; stroke-dashoffset: 0; stroke-linejoin: miter; stroke-miterlimit: 10; fill: none; fill-rule: nonzero; opacity: 1;" vector-effect="non-scaling-stroke"  transform=" translate(-274.55, -494.9)" d="M 268 481.8 C 275.2 481.8 281.1 487.7 281.1 494.90000000000003 C 281.1 502.1000000000001 275.2 508 268 508" stroke-linecap="round" />
</g>
</g>
</g>
<g transform="matrix(0.57 0 0 4.31 297.41 289.83)" style="" id="8c8b7c03-3cb3-4701-9b01-ce376f3f9174"  >
		<text xml:space="preserve" font-family="Lato" font-size="40" font-style="normal" font-weight="400" style="stroke: none; stroke-width: 1; stroke-dasharray: none; stroke-linecap: butt; stroke-dashoffset: 0; stroke-linejoin: miter; stroke-miterlimit: 4; fill: rgb(0,0,0); fill-rule: nonzero; opacity: 1; white-space: pre;" ></text>
</g>
<g transform="matrix(1 0 0 1 540 540)" style="" id="4d5394ad-eb88-45ab-81cb-b77830970326"  >
		<rect opacity="0" fill="rgb(0,0,0)" x="-432" y="-355.95" width="864" height="711.9"></rect>
		<text xml:space="preserve" font-family="Raleway" font-size="105" font-style="normal" font-weight="900" style="stroke: none; stroke-width: 1; stroke-dasharray: none; stroke-linecap: butt; stroke-dashoffset: 0; stroke-linejoin: miter; stroke-miterlimit: 4; fill: rgb(0,0,0); fill-rule: nonzero; opacity: 1; white-space: pre;" ><tspan x="-377.84" y="-263.64" >ILLUSTRATION</tspan><tspan x="-187.37" y="-144.99" >OF USV</tspan><tspan x="-332.11" y="-26.34" >COLLECTING</tspan><tspan x="-306.6" y="92.31" >SONAR AND</tspan><tspan x="-389.29" y="210.96" >LIDAR DATA ON</tspan><tspan x="-180.13" y="329.61" >A LAKE</tspan></text>
</g>
</svg>